<svg width="22" height="9" viewBox="0 0 22 9" fill="none" xmlns="http://www.w3.org/2000/svg">
<path d="M0.594727 8.41845V5.01419H1.03757V6.36487H3.09618V5.01419H3.52705V8.41845H3.09618V6.75078H1.03757V8.41845H0.594727Z" fill="#1B1B1B"/>
<path d="M8.0392 8.11525C8.43417 8.11525 8.75732 7.97742 9.00866 7.72934C9.26 7.46747 9.39166 7.13669 9.39166 6.737C9.39166 6.33731 9.26 6.00654 9.00866 5.74467C8.75732 5.4828 8.4222 5.35876 8.0392 5.35876C7.6562 5.35876 7.33305 5.49659 7.06974 5.74467C6.8184 6.00654 6.68674 6.33731 6.68674 6.737C6.68674 7.13669 6.8184 7.46747 7.06974 7.72934C7.33305 7.97742 7.64423 8.11525 8.0392 8.11525ZM8.0392 8.50115C7.51258 8.50115 7.08171 8.32198 6.74658 7.9912C6.41146 7.66043 6.23193 7.23317 6.23193 6.70944C6.23193 6.18571 6.41146 5.75845 6.74658 5.42767C7.08171 5.0969 7.51258 4.91772 8.0392 4.91772C8.56582 4.91772 8.99669 5.0969 9.34378 5.42767C9.69087 5.75845 9.85843 6.18571 9.85843 6.70944C9.85843 7.23317 9.6789 7.64664 9.34378 7.9912C8.99669 8.33576 8.56582 8.50115 8.0392 8.50115Z" fill="#1B1B1B"/>
<path d="M12.5275 8.41845V5.01419H12.9344L14.3347 7.09534L15.747 5.01419H16.142V8.41845H15.7111V5.75844L14.3347 7.78446L12.9464 5.75844V8.41845H12.5275Z" fill="#1B1B1B"/>
<path d="M19.0983 8.41845V5.01419H21.8391V5.41388H19.5291V6.40621H20.9175V6.79212H19.5291V8.03254H21.9707V8.41845H19.0983Z" fill="#1B1B1B"/>
<path d="M0.91394 3.66353L3.2598 0.658967H1.10544V0.259277H4.04973L1.75175 3.27763H4.03776V3.66353H0.91394Z" fill="#1B1B1B"/>
<path d="M7.26934 2.3542H8.80133L8.02337 0.838139L7.26934 2.3542ZM6.14429 3.66353L7.8558 0.259277H8.21486L9.95032 3.64975H9.48354L9.00479 2.74011H7.06587L6.5991 3.64975L6.14429 3.66353Z" fill="#1B1B1B"/>
<path d="M12.8108 1.77534H14.3427C14.5582 1.77534 14.7257 1.72021 14.8454 1.62374C14.9651 1.52726 15.025 1.40322 15.025 1.21026C15.025 1.03109 14.9651 0.893268 14.8454 0.796792C14.7257 0.700315 14.5821 0.645185 14.3667 0.645185H12.8108V1.77534ZM12.3799 3.66353V0.259277H14.3786C14.7138 0.259277 14.9771 0.341972 15.1805 0.507361C15.384 0.67275 15.4678 0.907051 15.4678 1.19648C15.4678 1.43078 15.396 1.6513 15.2524 1.83047C15.0968 2.00964 14.9053 2.10612 14.6659 2.16125L15.5396 3.66353H15.0609L14.1871 2.17503H12.8347V3.66353H12.3799Z" fill="#1B1B1B"/>
<path d="M18.5677 2.35449H20.0997L19.3337 0.838425L18.5677 2.35449ZM17.4546 3.66382L19.1661 0.273346H19.5252L21.2487 3.66382H20.7819L20.3031 2.75418H18.3762L17.9094 3.66382H17.4546Z" fill="#1B1B1B"/>
</svg>
