<svg width="15" height="15" viewBox="0 0 15 15" fill="none" xmlns="http://www.w3.org/2000/svg">
<path d="M5 13.75C5.34518 13.75 5.625 13.4702 5.625 13.125C5.625 12.7798 5.34518 12.5 5 12.5C4.65482 12.5 4.375 12.7798 4.375 13.125C4.375 13.4702 4.65482 13.75 5 13.75Z" stroke="white" stroke-width="1.3" stroke-linecap="round" stroke-linejoin="round"/>
<path d="M11.875 13.75C12.2202 13.75 12.5 13.4702 12.5 13.125C12.5 12.7798 12.2202 12.5 11.875 12.5C11.5298 12.5 11.25 12.7798 11.25 13.125C11.25 13.4702 11.5298 13.75 11.875 13.75Z" stroke="white" stroke-width="1.3" stroke-linecap="round" stroke-linejoin="round"/>
<path d="M1.28125 1.28125H2.53125L4.19375 9.04375C4.25474 9.32804 4.41292 9.58217 4.64107 9.76241C4.86922 9.94265 5.15307 10.0377 5.44375 10.0312H11.5563C11.8407 10.0308 12.1166 9.93331 12.3381 9.7549C12.5597 9.57649 12.7138 9.32783 12.775 9.05L13.8063 4.40625H3.2" stroke="white" stroke-width="1.3" stroke-linecap="round" stroke-linejoin="round"/>
</svg>
