<svg width="50" height="11" viewBox="0 0 50 11" fill="none" xmlns="http://www.w3.org/2000/svg">
<path d="M6.215 4.27527L5 0.214111L3.785 4.27527H0L3.09 6.51399L1.915 10.367L5 7.98616L8.09 10.367L6.915 6.51399L10 4.27527H6.215Z" fill="#46634B"/>
<path d="M16.215 4.27527L15 0.214111L13.785 4.27527H10L13.09 6.51399L11.915 10.367L15 7.98616L18.09 10.367L16.915 6.51399L20 4.27527H16.215Z" fill="#46634B"/>
<path d="M26.215 4.27527L25 0.214111L23.785 4.27527H20L23.09 6.51399L21.915 10.367L25 7.98616L28.09 10.367L26.915 6.51399L30 4.27527H26.215Z" fill="#46634B"/>
<path d="M36.215 4.27527L35 0.214111L33.785 4.27527H30L33.09 6.51399L31.915 10.367L35 7.98616L38.09 10.367L36.915 6.51399L40 4.27527H36.215Z" fill="#46634B"/>
<path d="M46.215 4.27527L45 0.214111L43.785 4.27527H40L43.09 6.51399L41.915 10.367L45 7.98616L48.09 10.367L46.915 6.51399L50 4.27527H46.215Z" fill="#46634B"/>
</svg>
