<svg width="50" height="11" viewBox="0 0 50 11" fill="none" xmlns="http://www.w3.org/2000/svg">
<path d="M6.215 4.74598L5 0.684814L3.785 4.74598H0L3.09 6.98469L1.915 10.8377L5 8.45686L8.09 10.8377L6.915 6.98469L10 4.74598H6.215Z" fill="#46634B"/>
<path d="M16.215 4.74598L15 0.684814L13.785 4.74598H10L13.09 6.98469L11.915 10.8377L15 8.45686L18.09 10.8377L16.915 6.98469L20 4.74598H16.215Z" fill="#46634B"/>
<path d="M26.215 4.74598L25 0.684814L23.785 4.74598H20L23.09 6.98469L21.915 10.8377L25 8.45686L28.09 10.8377L26.915 6.98469L30 4.74598H26.215Z" fill="#46634B"/>
<path d="M36.215 4.74598L35 0.684814L33.785 4.74598H30L33.09 6.98469L31.915 10.8377L35 8.45686L38.09 10.8377L36.915 6.98469L40 4.74598H36.215Z" fill="#46634B"/>
<path d="M50 4.55361L46.405 4.2223L45 0.684814L43.595 4.22764L40 4.55361L42.73 7.08115L41.91 10.8377L45 8.84454L48.09 10.8377L47.275 7.08115L50 4.55361ZM45 7.84528V2.8757L45.855 5.03453L48.045 5.23759L46.385 6.77656L46.885 9.06363L45 7.84528Z" fill="#46634B"/>
</svg>
