<svg width="15" height="15" viewBox="0 0 15 15" fill="none" xmlns="http://www.w3.org/2000/svg">
<path d="M6.12198 6.12201C5.9304 6.30053 5.77673 6.51581 5.67015 6.75501C5.56358 6.99421 5.50627 7.25242 5.50165 7.51425C5.49703 7.77608 5.54519 8.03615 5.64327 8.27896C5.74134 8.52177 5.88732 8.74234 6.07248 8.92751C6.25765 9.11268 6.47822 9.25865 6.72103 9.35673C6.96384 9.4548 7.22391 9.50297 7.48574 9.49835C7.74757 9.49373 8.00578 9.43642 8.24498 9.32984C8.48418 9.22326 8.69946 9.06959 8.87798 8.87801" stroke="#666666" stroke-width="2" stroke-linecap="round" stroke-linejoin="round"/>
<path d="M6.67456 3.002C6.94841 2.96788 7.22409 2.95051 7.50006 2.95C12.0501 2.95 14.0001 7.5 14.0001 7.5C13.7095 8.12213 13.345 8.707 12.9146 9.242" stroke="#666666" stroke-width="2" stroke-linecap="round" stroke-linejoin="round"/>
<path d="M3.9965 3.99649C2.70381 4.877 1.66942 6.08641 1 7.49999C1 7.49999 2.95 12.05 7.5 12.05C8.74534 12.0533 9.96401 11.6893 11.0035 11.0035" stroke="#666666" stroke-width="2" stroke-linecap="round" stroke-linejoin="round"/>
<path d="M1 1L14 14" stroke="#666666" stroke-width="2" stroke-linecap="round" stroke-linejoin="round"/>
</svg>
