<svg width="19" height="17" viewBox="0 0 19 17" fill="none" xmlns="http://www.w3.org/2000/svg">
<g clip-path="url(#clip0_67_104)">
<path d="M9.49358 14.6463C9.07767 14.6193 8.65621 14.6256 8.24772 14.5573C7.86516 14.4925 7.57802 14.5959 7.27141 14.8065C6.28955 15.4795 5.29009 16.1299 4.2934 16.7822C4.13593 16.8857 3.96828 17.0899 3.76357 16.9577C3.53107 16.8083 3.68391 16.5663 3.73207 16.3783C3.94419 15.5514 4.16187 14.7255 4.41011 13.9095C4.49904 13.6189 4.42864 13.4911 4.15816 13.3561C3.34396 12.9495 2.61868 12.4195 1.97861 11.7808C-0.666865 9.14371 -0.660381 5.44231 2.00918 2.82505C3.56256 1.30184 5.4809 0.466915 7.64008 0.149318C10.556 -0.279843 13.296 0.196103 15.7608 1.82458C17.2457 2.80526 18.3415 4.10534 18.7907 5.82378C19.3558 7.98308 18.7611 9.89047 17.2549 11.5225C15.5237 13.3993 13.2738 14.281 10.7413 14.5645C10.3282 14.6103 9.91041 14.6202 9.4945 14.6472L9.49358 14.6463ZM14.1083 7.34069L13.9963 7.28581C13.9963 6.92952 13.9796 6.57234 14.0009 6.21785C14.0231 5.85797 13.8453 5.73021 13.5063 5.73651C13.1904 5.74281 12.9727 5.83098 12.9746 6.19986C12.982 7.41357 12.9773 8.62727 12.9709 9.84008C12.969 10.1982 13.2043 10.2575 13.4914 10.2575C13.7869 10.2575 14.0074 10.1748 13.9953 9.82299C13.9842 9.49369 13.9935 9.1635 13.9935 8.83421C13.9935 8.70105 13.987 8.59039 14.163 8.51931C14.3751 8.43474 14.4038 8.59578 14.4752 8.68845C14.8179 9.13201 15.1587 9.57647 15.4848 10.0308C15.6969 10.3268 15.9387 10.307 16.1943 10.1199C16.4574 9.92735 16.5815 9.71322 16.3222 9.40462C15.9415 8.95297 15.5997 8.47073 15.2254 8.01367C15.0828 7.84003 15.0754 7.72037 15.243 7.55932C15.5719 7.24352 15.8692 6.89623 16.2055 6.58853C16.4713 6.34471 16.3944 6.15398 16.1814 5.94434C15.9674 5.73471 15.7701 5.65734 15.52 5.92005C15.0606 6.40409 14.5798 6.86834 14.1083 7.34069ZM7.61044 5.7554C7.35015 5.71762 7.12414 5.80309 7.01298 6.0883C6.55447 7.27321 6.0941 8.45813 5.64022 9.64485C5.51888 9.96154 5.71896 10.1298 5.98665 10.2225C6.25435 10.3142 6.52483 10.2503 6.56003 9.95345C6.62765 9.39203 6.96481 9.29846 7.45019 9.36144C7.60117 9.38123 7.76142 9.38483 7.91148 9.36054C8.34406 9.28946 8.59878 9.42172 8.68122 9.86887C8.74514 10.2162 9.00079 10.3367 9.34074 10.2126C9.64827 10.1001 9.7585 9.88327 9.6353 9.56747C9.19624 8.43564 8.76088 7.302 8.3246 6.16837C8.20511 5.85887 7.97261 5.73021 7.60858 5.7554H7.61044ZM4.45643 5.75001C3.96364 5.75001 3.46993 5.7554 2.97715 5.74821C2.6724 5.74371 2.51215 5.88046 2.50104 6.17017C2.48992 6.46887 2.62053 6.66051 2.95492 6.66591C3.14017 6.66951 3.32728 6.6857 3.50884 6.66321C3.84693 6.62182 3.91826 6.76848 3.91177 7.06988C3.89417 7.95249 3.91455 8.83511 3.90251 9.71772C3.89788 10.0785 4.06461 10.2477 4.42216 10.2512C4.78063 10.2548 4.95014 10.0938 4.94273 9.72762C4.92883 9.04024 4.94088 8.35106 4.94551 7.66369C4.94736 7.36498 4.85288 7.0015 4.99368 6.78467C5.17152 6.51026 5.5865 6.6929 5.89588 6.66951C6.21545 6.64522 6.38681 6.49856 6.38866 6.19626C6.39052 5.88496 6.21267 5.74281 5.88847 5.74911C5.4105 5.7581 4.93347 5.75091 4.4555 5.7518L4.45643 5.75001ZM10.0095 7.99028H10.0114C10.0114 8.57419 10.0132 9.1581 10.0114 9.74201C10.0104 10.065 10.1429 10.253 10.5023 10.2494C11.0886 10.2432 11.6741 10.2378 12.2604 10.2468C12.6022 10.2521 12.743 10.0659 12.7467 9.7771C12.7504 9.4766 12.6309 9.25167 12.2567 9.26697C11.9946 9.27686 11.7306 9.24987 11.4712 9.27327C11.1572 9.30206 11.0831 9.1779 11.0886 8.89179C11.1072 8.02357 11.0988 7.15535 11.0998 6.28713C11.0998 5.92005 10.9219 5.73831 10.5301 5.74731C10.1559 5.7554 10.0067 5.93804 10.0095 6.28353C10.0142 6.85215 10.0104 7.42076 10.0104 7.99028H10.0095Z" fill="#391F20"/>
<path d="M14.1083 7.34073C14.5798 6.86838 15.0605 6.40413 15.52 5.92009C15.7691 5.65737 15.9674 5.73475 16.1813 5.94438C16.3944 6.15311 16.4713 6.34475 16.2054 6.58857C15.8692 6.89627 15.5719 7.24446 15.243 7.55936C15.0754 7.72041 15.0828 7.84007 15.2254 8.01371C15.5996 8.47076 15.9414 8.95301 16.3221 9.40466C16.5824 9.71326 16.4583 9.92739 16.1943 10.1199C15.9387 10.3071 15.6969 10.3269 15.4848 10.0309C15.1587 9.57651 14.8179 9.13205 14.4751 8.68849C14.4038 8.59582 14.3751 8.43478 14.163 8.51935C13.987 8.58952 13.9935 8.70019 13.9935 8.83425C13.9935 9.16354 13.9842 9.49373 13.9953 9.82303C14.0074 10.1739 13.7869 10.2576 13.4914 10.2576C13.2043 10.2576 12.969 10.1982 12.9708 9.84012C12.9773 8.62641 12.982 7.41271 12.9745 6.1999C12.9727 5.83102 13.1904 5.74195 13.5062 5.73655C13.8453 5.73025 14.0222 5.85891 14.0009 6.21789C13.9796 6.57238 13.9962 6.92956 13.9962 7.28585L14.1083 7.34073Z" fill="#E3D537"/>
<path d="M7.61036 5.75543C7.97439 5.73024 8.20689 5.8589 8.32638 6.1684C8.76174 7.30203 9.19709 8.43566 9.63708 9.5675C9.75935 9.88329 9.64912 10.1001 9.34252 10.2126C9.00257 10.3367 8.74692 10.2162 8.683 9.8689C8.60056 9.42174 8.34583 9.28949 7.91326 9.36056C7.7632 9.38485 7.60295 9.38126 7.45197 9.36146C6.96659 9.29848 6.62942 9.39205 6.56181 9.95347C6.52568 10.2504 6.25613 10.3152 5.98843 10.2225C5.72074 10.1307 5.52066 9.96157 5.642 9.64487C6.09588 8.45815 6.55625 7.27324 7.01476 6.08832C7.12499 5.80221 7.351 5.71764 7.61222 5.75543H7.61036ZM7.66038 6.82428C7.52144 7.21206 7.42047 7.49097 7.32136 7.77078C7.14228 8.27821 7.33495 8.51124 7.89936 8.46985C7.91418 8.46895 7.92993 8.46805 7.94568 8.46985C8.13742 8.48155 8.18837 8.39787 8.13001 8.22603C7.9818 7.79237 7.83823 7.35691 7.66038 6.82518V6.82428Z" fill="#E3D537"/>
<path d="M4.45634 5.75003C4.9343 5.75003 5.41226 5.75633 5.8893 5.74733C6.2135 5.74103 6.39135 5.88319 6.3895 6.19448C6.38765 6.49679 6.21628 6.64344 5.89671 6.66773C5.58641 6.69112 5.17236 6.50848 4.99451 6.78289C4.85371 6.99972 4.9482 7.36321 4.94634 7.66191C4.94171 8.35019 4.92967 9.03846 4.94356 9.72584C4.95097 10.092 4.78146 10.2531 4.42299 10.2495C4.06544 10.2459 3.89871 10.0776 3.90334 9.71595C3.91538 8.83333 3.89408 7.95072 3.91261 7.0681C3.91909 6.7667 3.84777 6.62005 3.50967 6.66143C3.32812 6.68393 3.14008 6.66773 2.95575 6.66413C2.62136 6.65783 2.49076 6.4662 2.50187 6.16839C2.51299 5.87869 2.67231 5.74103 2.97798 5.74643C3.47077 5.75453 3.96448 5.74823 4.45726 5.74823L4.45634 5.75003Z" fill="#E3D537"/>
<path d="M10.0095 7.9903C10.0095 7.42169 10.0132 6.85307 10.0086 6.28355C10.0058 5.93807 10.1549 5.75543 10.5292 5.74733C10.921 5.73833 11.0988 5.92007 11.0988 6.28715C11.0988 7.15537 11.1062 8.02359 11.0877 8.89181C11.0812 9.17792 11.1563 9.30208 11.4703 9.27329C11.7296 9.24899 11.9945 9.27689 12.2558 9.26699C12.63 9.25259 12.7495 9.47752 12.7458 9.77712C12.7421 10.0659 12.6013 10.2522 12.2595 10.2468C11.674 10.2378 11.0877 10.2432 10.5014 10.2495C10.142 10.2531 10.0086 10.065 10.0104 9.74203C10.0123 9.15812 10.0104 8.57421 10.0104 7.9903H10.0086H10.0095Z" fill="#E3D537"/>
<path d="M7.66034 6.82338C7.83819 7.35511 7.98176 7.79057 8.12997 8.22423C8.18833 8.39607 8.13738 8.47974 7.94564 8.46805C7.93082 8.46805 7.91507 8.46805 7.89932 8.46805C7.33552 8.50943 7.14286 8.27641 7.32132 7.76897C7.42043 7.48916 7.5214 7.21025 7.66034 6.82248V6.82338Z" fill="#391F20"/>
</g>
<defs>
<clipPath id="clip0_67_104">
<rect width="19" height="17" fill="white"/>
</clipPath>
</defs>
</svg>
