<svg width="19" height="17" viewBox="0 0 19 17" fill="none" xmlns="http://www.w3.org/2000/svg">
<path d="M0 0C2.1514 0 4.27057 0 6.38571 0.0118853C6.52672 0.0118853 6.70801 0.170357 6.80068 0.305057C8.55725 2.86437 10.3017 5.4316 12.0503 7.99487C12.1389 8.12165 12.2275 8.24843 12.3846 8.46236V0.0316942H19V16.9683C18.8872 16.9762 18.7623 16.9921 18.6374 16.9921C16.6794 16.9921 14.7173 16.9881 12.7593 17C12.4934 17 12.3403 16.9168 12.1953 16.7029C10.4508 14.1198 8.6902 11.5407 6.93766 8.96551C6.86111 8.85062 6.77651 8.73969 6.62744 8.53368V16.9643H0C0 11.3347 0 5.69308 0 0Z" fill="#04B900"/>
</svg>
