<svg width="15" height="15" viewBox="0 0 15 15" fill="none" xmlns="http://www.w3.org/2000/svg">
<path d="M6.12211 6.12201C5.93052 6.30053 5.77686 6.51581 5.67028 6.75501C5.5637 6.99421 5.50639 7.25242 5.50177 7.51425C5.49715 7.77608 5.54531 8.03615 5.64339 8.27896C5.74146 8.52177 5.88744 8.74234 6.07261 8.92751C6.25778 9.11268 6.47834 9.25865 6.72115 9.35673C6.96396 9.4548 7.22404 9.50297 7.48586 9.49835C7.74769 9.49373 8.00591 9.43642 8.2451 9.32984C8.4843 9.22326 8.69958 9.06959 8.8781 8.87801" stroke="#666666" stroke-width="2" stroke-linecap="round" stroke-linejoin="round"/>
<path d="M6.67432 3.00201C6.94817 2.96789 7.22385 2.95053 7.49982 2.95001C12.0498 2.95001 13.9998 7.50001 13.9998 7.50001C13.7092 8.12214 13.3448 8.70702 12.9143 9.24201" stroke="#666666" stroke-width="2" stroke-linecap="round" stroke-linejoin="round"/>
<path d="M3.9965 3.99646C2.70381 4.87697 1.66942 6.08638 1 7.49996C1 7.49996 2.95 12.05 7.5 12.05C8.74534 12.0533 9.96401 11.6893 11.0035 11.0035" stroke="#666666" stroke-width="2" stroke-linecap="round" stroke-linejoin="round"/>
<path d="M1 1L14 14" stroke="#666666" stroke-width="2" stroke-linecap="round" stroke-linejoin="round"/>
</svg>
