<svg width="22" height="16" viewBox="0 0 22 16" fill="none" xmlns="http://www.w3.org/2000/svg">
<path d="M11 15C8.7 15 4.6 14.8 2.9 14.4C2.2 14.2 1.7 13.7 1.5 13C1.2 11.9 1 9.6 1 8C1 6.4 1.2 4.1 1.5 3C1.7 2.3 2.2 1.8 2.9 1.6C4.6 1.2 8.7 1 11 1C13.3 1 17.4 1.2 19.1 1.6C19.8 1.8 20.3 2.3 20.5 3C20.8 4.1 21 6.4 21 8C21 9.6 20.8 11.9 20.5 13C20.3 13.7 19.8 14.2 19.1 14.4C17.4 14.8 13.3 15 11 15V15Z" stroke="#46634B" stroke-width="1.5" stroke-linecap="round" stroke-linejoin="round"/>
<path d="M9 11L14 8L9 5V11Z" stroke="#46634B" stroke-width="1.5" stroke-linecap="round" stroke-linejoin="round"/>
</svg>
