<svg width="150" height="10" viewBox="0 0 150 10" fill="none" xmlns="http://www.w3.org/2000/svg">
<g clip-path="url(#clip0_115_1070)">
<path d="M80.775 9.76923V0.269231H82.1625V4.03846H88.6125V0.269231H89.9625V9.76923H88.6125V5.11539H82.1625V9.76923H80.775Z" fill="white"/>
<path d="M104.1 8.92308C105.338 8.92308 106.35 8.53846 107.138 7.84615C107.925 7.11538 108.337 6.19231 108.337 5.07692C108.337 3.96154 107.925 3.03846 107.138 2.30769C106.35 1.57692 105.3 1.23077 104.1 1.23077C102.9 1.23077 101.888 1.61538 101.062 2.30769C100.275 3.03846 99.8625 3.96154 99.8625 5.07692C99.8625 6.19231 100.275 7.11538 101.062 7.84615C101.888 8.53846 102.863 8.92308 104.1 8.92308ZM104.1 10C102.45 10 101.1 9.5 100.05 8.57692C99 7.65385 98.4375 6.46154 98.4375 5C98.4375 3.53846 99 2.34615 100.05 1.42308C101.1 0.5 102.45 0 104.1 0C105.75 0 107.1 0.5 108.188 1.42308C109.275 2.34615 109.8 3.53846 109.8 5C109.8 6.46154 109.238 7.61538 108.188 8.57692C107.1 9.53846 105.75 10 104.1 10Z" fill="white"/>
<path d="M118.162 9.76923V0.269231H119.437L123.825 6.07692L128.25 0.269231H129.487V9.76923H128.137V2.34615L123.825 8L119.475 2.34615V9.76923H118.162Z" fill="white"/>
<path d="M138.75 9.76923V0.269231H147.337V1.38462H140.1V4.15385H144.45V5.23077H140.1V8.69231H147.75V9.76923H138.75Z" fill="white"/>
<path d="M2.25 9.76923L9.6 1.38462H2.85V0.269231H12.075L4.875 8.69231H12.0375V9.76923H2.25Z" fill="white"/>
<path d="M22.1625 6.11538H26.9625L24.525 1.88462L22.1625 6.11538ZM18.6375 9.76923L24 0.269231H25.125L30.5625 9.73077H29.0999L27.5999 7.19231H21.525L20.0625 9.73077L18.6375 9.76923Z" fill="white"/>
<path d="M39.525 4.5H44.325C45 4.5 45.525 4.34615 45.9 4.07692C46.275 3.80769 46.4625 3.46154 46.4625 2.92308C46.4625 2.42308 46.275 2.03846 45.9 1.76923C45.525 1.5 45.075 1.34615 44.4 1.34615H39.525V4.5ZM38.175 9.76923V0.269231H44.4375C45.4875 0.269231 46.3125 0.5 46.95 0.961539C47.5875 1.42308 47.85 2.07692 47.85 2.88462C47.85 3.53846 47.625 4.15385 47.175 4.65385C46.6875 5.15385 46.0875 5.42308 45.3375 5.57692L48.075 9.76923H46.575L43.8375 5.61539H39.6V9.76923H38.175Z" fill="white"/>
<path d="M57.5625 6.11538H62.3625L59.9625 1.88462L57.5625 6.11538ZM54.075 9.76923L59.4375 0.307693H60.5625L65.9625 9.76923H64.5L63 7.23077H56.9625L55.5 9.76923H54.075Z" fill="white"/>
</g>
<defs>
<clipPath id="clip0_115_1070">
<rect width="150" height="10" fill="white"/>
</clipPath>
</defs>
</svg>
